HIERARCHY
ROOT Hips
{
	OFFSET 0.000000 100.481300 0.000000
	CHANNELS 6 Xposition Yposition Zposition Xrotation Yrotation Zrotation
	JOINT Spine
	{
		OFFSET -0.279200 12.230698 -2.892100
		CHANNELS 3 Xrotation Yrotation Zrotation
		JOINT Spine1
		{
			OFFSET -0.325700 14.269203 -3.374200
			CHANNELS 3 Xrotation Yrotation Zrotation
			JOINT Spine2
			{
				OFFSET -0.372300 16.307602 -0.352600
				CHANNELS 3 Xrotation Yrotation Zrotation
				JOINT Neck
				{
					OFFSET -0.418800 17.814194 8.416900
					CHANNELS 3 Xrotation Yrotation Zrotation
					JOINT Head
					{
						OFFSET 0.000000 7.031097 3.806800
						CHANNELS 3 Xrotation Yrotation Zrotation
						JOINT HeadTop_End
						{
							OFFSET 0.000000 24.646606 12.978600
							CHANNELS 3 Xrotation Yrotation Zrotation
							End Site
							{
								OFFSET 0.000000 27.854965 0.000000
							}
						}
					}
				}
				JOINT LeftShoulder
				{
					OFFSET 16.952999 14.495407 -7.737500
					CHANNELS 3 Xrotation Yrotation Zrotation
					JOINT LeftArm
					{
						OFFSET 9.308998 -2.777710 0.208600
						CHANNELS 3 Xrotation Yrotation Zrotation
						JOINT LeftForeArm
						{
							OFFSET 29.972298 0.000000 0.000000
							CHANNELS 3 Xrotation Yrotation Zrotation
							JOINT LeftHand
							{
								OFFSET 26.026505 0.000000 0.000000
								CHANNELS 3 Xrotation Yrotation Zrotation
								JOINT LeftHandThumb1
								{
									OFFSET 12.240501 -7.147949 9.207150
									CHANNELS 3 Xrotation Yrotation Zrotation
									JOINT LeftHandThumb2
									{
										OFFSET 4.138618 -2.389435 2.389433
										CHANNELS 3 Xrotation Yrotation Zrotation
										JOINT LeftHandThumb3
										{
											OFFSET 2.726913 -1.574387 1.574386
											CHANNELS 3 Xrotation Yrotation Zrotation
											JOINT LeftHandThumb4
											{
												OFFSET 3.941010 -2.275345 2.275342
												CHANNELS 3 Xrotation Yrotation Zrotation
												End Site
												{
													OFFSET -0.005798 5.087799 0.009903
												}
											}
										}
									}
								}
								JOINT LeftHandIndex1
								{
									OFFSET 24.424698 -1.985611 5.953459
									CHANNELS 3 Xrotation Yrotation Zrotation
									JOINT LeftHandIndex2
									{
										OFFSET 6.426697 0.000000 0.000000
										CHANNELS 3 Xrotation Yrotation Zrotation
										JOINT LeftHandIndex3
										{
											OFFSET 5.337898 0.000000 0.000000
											CHANNELS 3 Xrotation Yrotation Zrotation
											JOINT LeftHandIndex4
											{
												OFFSET 4.409401 0.000000 0.000000
												CHANNELS 3 Xrotation Yrotation Zrotation
												End Site
												{
													OFFSET 0.000000 4.409363 0.014373
												}
											}
										}
									}
								}
								JOINT LeftHandMiddle1
								{
									OFFSET 23.810104 0.000000 0.000000
									CHANNELS 3 Xrotation Yrotation Zrotation
									JOINT LeftHandMiddle2
									{
										OFFSET 7.176498 0.000000 0.000000
										CHANNELS 3 Xrotation Yrotation Zrotation
										JOINT LeftHandMiddle3
										{
											OFFSET 6.774902 0.000000 0.000000
											CHANNELS 3 Xrotation Yrotation Zrotation
											JOINT LeftHandMiddle4
											{
												OFFSET 5.403328 0.000000 0.000000
												CHANNELS 3 Xrotation Yrotation Zrotation
												End Site
												{
													OFFSET -0.027702 5.403244 0.017414
												}
											}
										}
									}
								}
								JOINT LeftHandRing1
								{
									OFFSET 22.908401 -0.839279 -6.020567
									CHANNELS 3 Xrotation Yrotation Zrotation
									JOINT LeftHandRing2
									{
										OFFSET 6.337502 0.000000 0.000000
										CHANNELS 3 Xrotation Yrotation Zrotation
										JOINT LeftHandRing3
										{
											OFFSET 5.779297 0.000000 0.000000
											CHANNELS 3 Xrotation Yrotation Zrotation
											JOINT LeftHandRing4
											{
												OFFSET 4.965698 0.000000 0.000000
												CHANNELS 3 Xrotation Yrotation Zrotation
												End Site
												{
													OFFSET 0.000000 4.965668 0.016186
												}
											}
										}
									}
								}
								JOINT LeftHandPinky1
								{
									OFFSET 20.037003 -1.530319 -10.950146
									CHANNELS 3 Xrotation Yrotation Zrotation
									JOINT LeftHandPinky2
									{
										OFFSET 5.254700 0.000000 0.000000
										CHANNELS 3 Xrotation Yrotation Zrotation
										JOINT LeftHandPinky3
										{
											OFFSET 4.810204 0.000000 0.000000
											CHANNELS 3 Xrotation Yrotation Zrotation
											JOINT LeftHandPinky4
											{
												OFFSET 3.647202 0.000000 0.000000
												CHANNELS 3 Xrotation Yrotation Zrotation
												End Site
												{
													OFFSET 0.000000 3.647186 0.011889
												}
											}
										}
									}
								}
							}
						}
					}
				}
				JOINT RightShoulder
				{
					OFFSET -15.141001 14.495407 -7.737500
					CHANNELS 3 Xrotation Yrotation Zrotation
					JOINT RightArm
					{
						OFFSET -9.308998 -2.777710 0.208500
						CHANNELS 3 Xrotation Yrotation Zrotation
						JOINT RightForeArm
						{
							OFFSET -29.972300 0.000000 0.000000
							CHANNELS 3 Xrotation Yrotation Zrotation
							JOINT RightHand
							{
								OFFSET -26.026505 0.000000 0.000000
								CHANNELS 3 Xrotation Yrotation Zrotation
								JOINT RightHandThumb1
								{
									OFFSET -12.240601 -7.148026 9.207092
									CHANNELS 3 Xrotation Yrotation Zrotation
									JOINT RightHandThumb2
									{
										OFFSET -4.138618 -2.389435 2.389433
										CHANNELS 3 Xrotation Yrotation Zrotation
										JOINT RightHandThumb3
										{
											OFFSET -2.726974 -1.574417 1.574421
											CHANNELS 3 Xrotation Yrotation Zrotation
											JOINT RightHandThumb4
											{
												OFFSET -3.941010 -2.275345 2.275343
												CHANNELS 3 Xrotation Yrotation Zrotation
												End Site
												{
													OFFSET 0.005814 5.087799 0.009927
												}
											}
										}
									}
								}
								JOINT RightHandIndex1
								{
									OFFSET -24.424698 -1.985657 5.953444
									CHANNELS 3 Xrotation Yrotation Zrotation
									JOINT RightHandIndex2
									{
										OFFSET -6.426697 0.000000 0.000000
										CHANNELS 3 Xrotation Yrotation Zrotation
										JOINT RightHandIndex3
										{
											OFFSET -5.337898 0.000000 0.000000
											CHANNELS 3 Xrotation Yrotation Zrotation
											JOINT RightHandIndex4
											{
												OFFSET -4.409401 0.000000 0.000000
												CHANNELS 3 Xrotation Yrotation Zrotation
												End Site
												{
													OFFSET 0.000000 4.409363 0.014408
												}
											}
										}
									}
								}
								JOINT RightHandMiddle1
								{
									OFFSET -23.810097 0.000000 0.000000
									CHANNELS 3 Xrotation Yrotation Zrotation
									JOINT RightHandMiddle2
									{
										OFFSET -7.176498 0.000000 0.000000
										CHANNELS 3 Xrotation Yrotation Zrotation
										JOINT RightHandMiddle3
										{
											OFFSET -6.774902 0.000000 0.000000
											CHANNELS 3 Xrotation Yrotation Zrotation
											JOINT RightHandMiddle4
											{
												OFFSET -5.403328 0.000000 0.000000
												CHANNELS 3 Xrotation Yrotation Zrotation
												End Site
												{
													OFFSET 0.027702 5.403244 0.017457
												}
											}
										}
									}
								}
								JOINT RightHandRing1
								{
									OFFSET -22.908302 -0.839325 -6.020576
									CHANNELS 3 Xrotation Yrotation Zrotation
									JOINT RightHandRing2
									{
										OFFSET -6.337502 0.000000 0.000000
										CHANNELS 3 Xrotation Yrotation Zrotation
										JOINT RightHandRing3
										{
											OFFSET -5.779297 0.000000 0.000000
											CHANNELS 3 Xrotation Yrotation Zrotation
											JOINT RightHandRing4
											{
												OFFSET -4.965698 0.000000 0.000000
												CHANNELS 3 Xrotation Yrotation Zrotation
												End Site
												{
													OFFSET 0.000000 4.965668 0.016226
												}
											}
										}
									}
								}
								JOINT RightHandPinky1
								{
									OFFSET -20.037003 -1.530334 -10.950259
									CHANNELS 3 Xrotation Yrotation Zrotation
									JOINT RightHandPinky2
									{
										OFFSET -5.254700 0.000000 0.000000
										CHANNELS 3 Xrotation Yrotation Zrotation
										JOINT RightHandPinky3
										{
											OFFSET -4.810204 0.000000 0.000000
											CHANNELS 3 Xrotation Yrotation Zrotation
											JOINT RightHandPinky4
											{
												OFFSET -3.647202 0.000000 0.000000
												CHANNELS 3 Xrotation Yrotation Zrotation
												End Site
												{
													OFFSET 0.000000 3.647186 0.011917
												}
											}
										}
									}
								}
							}
						}
					}
				}
			}
		}
	}
	JOINT LeftUpLeg
	{
		OFFSET 15.427100 -6.655098 0.678600
		CHANNELS 3 Xrotation Yrotation Zrotation
		JOINT LeftLeg
		{
			OFFSET 4.081073 -39.591068 13.024000
			CHANNELS 3 Xrotation Yrotation Zrotation
			JOINT LeftFoot
			{
				OFFSET -4.081074 -37.707932 -15.979700
				CHANNELS 3 Xrotation Yrotation Zrotation
				JOINT LeftToeBase
				{
					OFFSET 5.346399 -15.068900 20.645000
					CHANNELS 3 Xrotation Yrotation Zrotation
					JOINT LeftToe_End
					{
						OFFSET 2.754700 0.931300 11.300900
						CHANNELS 3 Xrotation Yrotation Zrotation
						End Site
						{
							OFFSET 0.000000 11.669021 0.000000
						}
					}
				}
			}
		}
	}
	JOINT RightUpLeg
	{
		OFFSET -15.569500 -6.655098 0.678600
		CHANNELS 3 Xrotation Yrotation Zrotation
		JOINT RightLeg
		{
			OFFSET -4.081825 -39.591045 13.023800
			CHANNELS 3 Xrotation Yrotation Zrotation
			JOINT RightFoot
			{
				OFFSET 4.081824 -37.707954 -15.979600
				CHANNELS 3 Xrotation Yrotation Zrotation
				JOINT RightToeBase
				{
					OFFSET -5.346400 -15.068900 20.645000
					CHANNELS 3 Xrotation Yrotation Zrotation
					JOINT RightToe_End
					{
						OFFSET -2.754700 0.931300 11.300900
						CHANNELS 3 Xrotation Yrotation Zrotation
						End Site
						{
							OFFSET 0.000000 11.669021 0.000000
						}
					}
				}
			}
		}
	}
}
MOTION
Frames: 4
Frame Time: 0.033333
-248.677582 57.113319 -39.884499 -140.950133 -174.016650 -191.682156 10.695123 -2.923469 -3.150581 4.441348 -1.796444 -1.580487 4.438668 -2.052998 -1.424551 -0.339639 10.895474 2.820403 -13.000466 45.927087 -18.083582 0.000003 -0.000003 0.000001 -0.379456 2.067719 11.952941 -200.071062 -197.722037 -202.791281 0.008229 -90.977942 0.007929 17.532691 27.459679 14.426002 20.879490 -10.578842 -7.471253 18.424739 15.000656 2.484040 18.107193 67.043224 3.186288 0.000002 0.000001 0.000000 2.985759 5.774365 -47.141699 2.589766 5.384123 -51.349987 1.301816 4.033970 -35.758725 0.000001 0.000001 0.000003 4.239851 6.603661 -53.474080 4.417334 6.426952 -68.972773 0.197287 1.639620 -13.721129 -0.000000 0.000003 0.000001 -0.114173 2.000799 -34.904889 4.624418 6.502298 -70.811959 1.489883 4.282360 -38.351990 0.000001 -0.000000 -0.000001 0.047562 1.699360 -26.131769 3.472295 1.892883 -60.335050 1.869497 4.721297 -43.185538 -0.000001 0.000000 -0.000000 -1.157127 -8.968543 -2.628902 -15.180845 -10.167199 6.049226 0.000013 48.524905 -0.000006 -28.911863 -7.530368 -25.380682 -5.148899 -4.819763 -5.697710 8.898376 -14.943754 -11.921953 -2.201097 -14.526554 -3.964852 0.000001 0.000000 -0.000003 0.048417 -0.856608 9.066533 0.260170 -1.887827 15.691859 0.119644 -1.286890 10.622332 -0.000002 0.000001 -0.000000 0.119653 -1.287005 10.671378 0.751667 -3.149476 26.840432 0.014146 -0.332367 2.730816 0.000001 0.000000 -0.000000 0.260585 -1.893607 14.686531 0.552963 -2.721993 22.962295 0.083001 -1.032631 8.513153 0.000002 -0.000000 -0.000000 -0.150422 -0.348623 14.997509 0.336599 -2.141166 17.865869 0.189429 -1.615103 13.377682 -0.000003 0.000002 -0.000001 -90.606619 -31.542650 55.802506 59.066479 -2.195254 -5.862542 15.306515 -0.344231 -27.627459 1.288786 0.013886 -1.339153 -0.000000 0.000005 0.000001 -69.122594 4.725456 -41.053159 50.847879 11.314272 9.624782 -6.896318 -9.910723 33.455219 -2.396768 0.000003 0.000005 0.000000 0.000001 0.000000 
-250.142532 54.299095 -39.994911 -139.712872 -172.713423 -190.207559 11.462883 -3.686098 -2.563547 4.973713 -2.303777 -1.821808 4.941665 -2.705863 -1.609808 -0.082004 12.040908 3.927236 -18.148088 41.365084 -16.219611 -0.000002 0.000000 -0.000001 -0.345130 2.468631 10.987110 -208.802107 -192.994877 -191.786220 -0.000179 -86.988046 -0.000227 15.079555 38.079684 11.698880 18.503862 -10.984608 -7.838085 17.424398 20.468632 -0.073041 18.107207 67.043218 3.186293 0.000000 0.000001 -0.000001 2.985779 5.774369 -47.141696 2.589774 5.384125 -51.349997 1.301816 4.033948 -35.758742 0.000001 0.000001 -0.000000 4.000822 6.386012 -54.885638 4.554826 6.477822 -70.196299 0.200296 1.651884 -13.825824 -0.000003 0.000003 0.000002 -0.417047 1.672009 -36.147939 4.991778 6.617915 -74.026710 1.513083 4.311453 -38.661616 0.000002 -0.000001 -0.000001 -0.524945 0.713228 -27.900083 3.431111 1.869296 -59.940572 1.828276 4.677142 -42.682358 -0.000004 -0.000002 0.000003 -0.644309 -11.301998 0.956880 -3.504559 -16.784584 14.654565 -0.000004 33.033643 0.000007 -34.170644 9.625851 -17.877484 -5.522488 -1.240027 -5.572619 9.352204 -12.869268 -11.023422 -2.201092 -14.526564 -3.964868 0.000001 0.000001 0.000001 0.048420 -0.856606 9.066537 0.260169 -1.887827 15.691856 0.119637 -1.286898 10.622330 0.000001 0.000000 -0.000000 0.119654 -1.287002 10.671372 0.751674 -3.149473 26.840441 0.014145 -0.332367 2.730812 -0.000001 0.000000 -0.000000 0.260586 -1.893610 14.686531 0.552969 -2.721998 22.962292 0.083003 -1.032628 8.513158 0.000001 -0.000000 -0.000002 -0.150419 -0.348621 14.997513 0.336593 -2.141163 17.865869 0.189420 -1.615103 13.377683 -0.000001 0.000000 0.000001 -90.891718 -33.481584 58.842722 61.675461 -2.403731 -6.923708 15.120879 0.133211 -29.747410 -0.421150 0.000028 -0.000003 0.000000 -0.000000 -0.000000 -71.689440 7.383073 -41.941299 52.578018 13.120062 10.470543 -8.646277 -11.360442 36.313554 0.192953 -0.000139 0.141440 -0.000000 -0.000002 -0.000000 
-251.344513 51.861511 -39.769028 -137.080012 -170.957545 -188.686148 11.952515 -4.778630 -1.998545 5.277828 -2.909153 -2.164803 5.195008 -3.497503 -1.883615 1.340780 13.874709 3.461573 -21.613700 38.181980 -14.830108 -0.000003 0.000000 -0.000001 -0.260161 2.685466 9.771795 -211.975372 -183.681327 -175.815531 0.000058 -72.504186 0.000055 -16.294770 48.798010 5.203564 16.078431 -11.278727 -8.175417 16.532659 25.891497 -2.306172 18.107192 67.043224 3.186313 0.000001 -0.000004 -0.000001 2.985754 5.774381 -47.141713 2.589790 5.384126 -51.350011 1.301805 4.033949 -35.758735 0.000001 0.000000 0.000001 3.739496 6.181838 -56.028185 4.666238 6.516593 -71.180939 0.202936 1.662621 -13.917403 0.000001 -0.000002 -0.000001 -0.697549 1.395684 -37.256763 5.332353 6.705439 -76.961916 1.526512 4.328144 -38.840089 0.000001 -0.000000 0.000001 -1.086879 -0.112981 -29.610059 3.373137 1.835368 -59.382314 1.779397 4.623755 -42.079617 0.000002 -0.000004 0.000000 0.383758 -13.242711 4.872565 6.861249 -16.325341 21.209793 -0.000009 18.274169 -0.000003 -46.667104 11.787968 -16.866225 -5.887465 2.442815 -5.440766 9.756861 -10.729572 -10.121621 -2.201098 -14.526556 -3.964842 0.000003 -0.000000 -0.000002 0.048420 -0.856609 9.066534 0.260167 -1.887831 15.691858 0.119638 -1.286892 10.622329 0.000001 0.000003 -0.000000 0.119660 -1.287009 10.671377 0.751659 -3.149467 26.840439 0.014148 -0.332370 2.730818 0.000000 -0.000001 -0.000000 0.260586 -1.893611 14.686522 0.552958 -2.721997 22.962290 0.083006 -1.032628 8.513154 -0.000000 0.000002 0.000000 -0.150417 -0.348626 14.997513 0.336596 -2.141162 17.865871 0.189427 -1.615111 13.377683 0.000001 0.000000 -0.000001 -89.267246 -35.634398 63.637200 61.885434 -2.149408 -7.294002 16.246035 0.012495 -33.652622 -1.410229 -0.000020 0.000000 -0.000000 -0.000000 0.000000 -76.128291 10.008385 -42.858180 54.879047 13.597716 10.925522 -9.597604 -9.337257 38.055826 0.252218 -0.000260 0.182602 -0.000000 -0.000001 0.000000 
-251.879684 50.054428 -39.352234 -133.178416 -169.464998 -187.174299 12.229278 -5.736773 -1.334708 5.482256 -3.420738 -2.552263 5.329019 -4.207720 -2.212429 2.866107 16.158841 1.971511 -23.488279 37.130046 -14.356615 -0.000000 -0.000002 0.000002 -0.322328 3.024978 10.300002 -210.345566 -183.465971 -167.682333 -0.000029 -64.805094 -0.000030 -36.267324 61.689169 -12.010287 13.621566 -11.434218 -8.437269 15.743086 31.067197 -4.247793 18.107217 67.043218 3.186287 -0.000000 -0.000005 0.000002 2.985762 5.774368 -47.141692 2.589785 5.384130 -51.349994 1.301803 4.033963 -35.758738 0.000001 0.000000 -0.000000 3.465432 5.991054 -56.806632 4.741473 6.541582 -71.842593 0.205059 1.671145 -13.990235 -0.000000 -0.000002 -0.000002 -0.929330 1.188856 -38.176997 5.625090 6.766115 -79.457332 1.527031 4.328782 -38.846878 0.000002 0.000000 -0.000000 -1.583688 -0.723357 -31.228308 3.297020 1.789671 -58.644557 1.722854 4.560543 -41.373311 -0.000001 -0.000000 -0.000001 1.836867 -14.356764 9.027842 17.507115 -13.521681 25.037288 -0.000005 12.878965 -0.000017 -61.468438 7.395823 -26.895277 -6.201504 5.778760 -5.319087 10.070673 -8.787653 -9.321273 -2.201094 -14.526547 -3.964840 0.000003 -0.000000 -0.000000 0.048416 -0.856603 9.066538 0.260161 -1.887834 15.691849 0.119642 -1.286902 10.622329 -0.000000 0.000001 0.000001 0.119659 -1.287005 10.671384 0.751658 -3.149467 26.840444 0.014151 -0.332376 2.730817 -0.000001 0.000000 0.000001 0.260583 -1.893607 14.686524 0.552965 -2.722000 22.962292 0.083001 -1.032631 8.513152 0.000001 0.000000 -0.000001 -0.150416 -0.348632 14.997507 0.336592 -2.141152 17.865852 0.189423 -1.615098 13.377690 0.000000 -0.000002 -0.000001 -88.555062 -37.449494 67.081795 62.285561 -1.553361 -7.043601 16.261915 -0.065367 -37.054866 -1.811772 0.000005 0.000001 -0.000000 -0.000003 -0.000000 -81.065657 12.177341 -44.062606 56.520908 13.491180 11.879823 -10.224059 -7.112517 37.964333 0.166178 -0.000113 0.121610 0.000000 -0.000001 -0.000000 
